<svg width="169" height="225" viewBox="0 0 169 226" fill="none" xmlns="http://www.w3.org/2000/svg">
<path opacity="0.3" d="M2.69786 195.747C-0.275589 194.054 -0.275588 191.31 2.69786 189.617L59.2288 157.433C62.2023 155.74 67.0232 155.74 69.9966 157.433L120.238 185.579C123.211 187.272 123.211 190.016 120.238 191.709L63.7067 223.893C60.7333 225.586 55.9124 225.586 52.9389 223.893L2.69786 195.747Z" fill="url(#paint0_linear_115_5518)"/>
<path fill-rule="evenodd" clip-rule="evenodd" d="M168.468 111.709H48.4678V162.618C48.4677 163.668 49.163 164.717 50.5538 165.518L103.432 195.963C106.213 197.564 110.722 197.564 113.504 195.963L166.382 165.518C167.772 164.717 168.468 163.668 168.468 162.618V111.709Z" fill="url(#paint1_linear_115_5518)"/>
<path d="M50.5538 114.608C47.7724 113.007 47.7724 110.41 50.5538 108.809L103.432 78.3641C106.213 76.7627 110.722 76.7627 113.504 78.3641L166.382 108.809C169.163 110.41 169.163 113.007 166.382 114.608L113.504 145.053C110.722 146.654 106.213 146.654 103.432 145.053L50.5538 114.608Z" fill="#50CBFF"/>
<ellipse cx="108.468" cy="112.142" rx="41" ry="23" fill="url(#paint2_radial_115_5518)"/>
<path d="M149.468 110.371C149.468 97.634 131.111 87.3086 108.468 87.3086C85.8241 87.3086 67.4678 97.634 67.4678 110.371C67.4678 110.657 67.477 110.942 67.4954 111.225H67.4678V110.371V24.1003H67.4954C67.477 23.8168 67.4678 23.5321 67.4678 23.2461C67.4678 10.509 85.8241 0.183594 108.468 0.183594C131.111 0.183594 149.468 10.509 149.468 23.2461C149.468 23.5321 149.459 23.8168 149.44 24.1003H149.468V110.371Z" fill="url(#paint3_linear_115_5518)"/>
<path d="M149.468 110.371C149.468 110.657 149.459 110.942 149.44 111.225H149.468V110.371Z" fill="url(#paint4_linear_115_5518)"/>
<path d="M108.155 44.584L109.504 68.9038" stroke="#FFECCF" stroke-linecap="round"/>
<path d="M137.109 16.0088L128.564 32.0967" stroke="#FFECCF" stroke-linecap="round"/>
<path d="M123.635 32.0891H128.577L131.049 36.354H126.106L123.635 32.0891Z" fill="#FFB800"/>
<path d="M123.635 32.0891H128.577L131.049 36.354H126.106L123.635 32.0891Z" fill="black" fill-opacity="0.4"/>
<path d="M131.023 27.8391L128.551 32.104L131.023 36.3689L133.494 32.104L131.023 27.8391Z" fill="#FFB800"/>
<path d="M131.023 27.8391L128.551 32.104L131.023 36.3689L133.494 32.104L131.023 27.8391Z" fill="white" fill-opacity="0.4"/>
<path d="M123.635 32.0891L126.106 27.8242H131.049L128.577 32.0891H123.635Z" fill="#FFB800"/>
<path d="M108.189 44.584L127.104 34.3594" stroke="#FFECCF" stroke-linecap="round"/>
<path d="M127.907 54.4629L127.104 34.3594" stroke="#FFECCF" stroke-linecap="round"/>
<path d="M78.1836 20.2812L83.8701 48.2363" stroke="#FFECCF" stroke-linecap="round"/>
<path d="M107.203 20.3934L111.475 17.9286L115.748 20.3934L111.475 22.8582L107.203 20.3934Z" fill="#FFB800"/>
<path d="M107.203 20.3934L111.475 17.9286L115.748 20.3934L111.475 22.8582L107.203 20.3934Z" fill="black" fill-opacity="0.4"/>
<path d="M111.461 13.0247V17.9544L115.733 20.4192V15.4895L111.461 13.0247Z" fill="#FFB800"/>
<path d="M111.461 13.0247V17.9544L115.733 20.4192V15.4895L111.461 13.0247Z" fill="white" fill-opacity="0.4"/>
<path d="M107.203 20.3934L107.203 15.4638L111.475 12.999L111.475 17.9286L107.203 20.3934Z" fill="#FFB800"/>
<path d="M73.9111 17.8164L78.1835 20.2812L78.1835 25.2108L73.9111 22.746L73.9111 17.8164Z" fill="#FFB800"/>
<path d="M73.9111 17.8164L78.1835 20.2812L78.1835 25.2108L73.9111 22.746L73.9111 17.8164Z" fill="black" fill-opacity="0.4"/>
<path d="M82.4261 17.8164L78.1537 20.2812V25.2108L82.4261 22.746V17.8164Z" fill="#FFB800"/>
<path d="M82.4261 17.8164L78.1537 20.2812V25.2108L82.4261 22.746V17.8164Z" fill="white" fill-opacity="0.4"/>
<path d="M73.9111 17.8164L78.1835 15.3516L82.4558 17.8164L78.1835 20.2812L73.9111 17.8164Z" fill="#FFB800"/>
<path d="M79.5977 50.701L83.87 48.2362L88.1423 50.701L83.87 53.1659L79.5977 50.701Z" fill="#FFB800"/>
<path d="M79.5977 50.701L83.87 48.2362L88.1423 50.701L83.87 53.1659L79.5977 50.701Z" fill="black" fill-opacity="0.4"/>
<path d="M83.8551 43.3324V48.262L88.1274 50.7268V45.7972L83.8551 43.3324Z" fill="#FFB800"/>
<path d="M83.8551 43.3324V48.262L88.1274 50.7268V45.7972L83.8551 43.3324Z" fill="white" fill-opacity="0.4"/>
<path d="M79.5977 50.701L79.5977 45.7714L83.87 43.3066L83.87 48.2362L79.5977 50.701Z" fill="#FFB800"/>
<path d="M71.2822 71.666L75.5546 74.1308L75.5546 79.0604L71.2822 76.5956L71.2822 71.666Z" fill="#FFB800"/>
<path d="M71.2822 71.666L75.5546 74.1308L75.5546 79.0604L71.2822 76.5956L71.2822 71.666Z" fill="black" fill-opacity="0.4"/>
<path d="M79.7972 71.666L75.5248 74.1308V79.0604L79.7972 76.5956V71.666Z" fill="#FFB800"/>
<path d="M79.7972 71.666L75.5248 74.1308V79.0604L79.7972 76.5956V71.666Z" fill="white" fill-opacity="0.4"/>
<path d="M71.2822 71.666L75.5546 69.2012L79.8269 71.666L75.5546 74.1308L71.2822 71.666Z" fill="#FFB800"/>
<path d="M92.3154 74.1243H97.2579L99.7292 78.3892H94.7867L92.3154 74.1243Z" fill="#FFB800"/>
<path d="M92.3154 74.1243H97.2579L99.7292 78.3892H94.7867L92.3154 74.1243Z" fill="black" fill-opacity="0.4"/>
<path d="M99.7034 69.8742L97.2321 74.1391L99.7034 78.404L102.175 74.1391L99.7034 69.8742Z" fill="#FFB800"/>
<path d="M99.7034 69.8742L97.2321 74.1391L99.7034 78.404L102.175 74.1391L99.7034 69.8742Z" fill="white" fill-opacity="0.4"/>
<path d="M92.3154 74.1243L94.7867 69.8594H99.7292L97.2579 74.1243H92.3154Z" fill="#FFB800"/>
<path d="M87.3857 82.6758L95.906 76.4008" stroke="#FFECCF" stroke-linecap="round"/>
<path d="M109.504 68.9043L99.7656 74.1323" stroke="#FFECCF" stroke-linecap="round"/>
<path d="M77.585 75.4268L87.3858 82.6761" stroke="#FFECCF" stroke-linecap="round"/>
<path d="M77.585 75.4268L83.8701 50.9302" stroke="#FFECCF" stroke-linecap="round"/>
<path d="M108.155 44.584L85.873 46.5771" stroke="#FFECCF" stroke-linecap="round"/>
<path d="M80.4844 21.6523L109.037 16.8984" stroke="#FFECCF" stroke-linecap="round"/>
<path d="M113.631 16.8984L134.526 16.001" stroke="#FFECCF" stroke-linecap="round"/>
<path d="M80.4844 21.6523L91.7568 32.0972" stroke="#FFECCF" stroke-linecap="round"/>
<path d="M84.9209 78.4043L87.3857 82.6766L84.9209 86.9489L82.4561 82.6766L84.9209 78.4043Z" fill="#FFB800"/>
<path d="M84.9209 78.4043L87.3857 82.6766L84.9209 86.9489L82.4561 82.6766L84.9209 78.4043Z" fill="black" fill-opacity="0.4"/>
<path d="M92.2895 82.6618L87.3599 82.6618L84.8951 86.9341H89.8247L92.2895 82.6618Z" fill="#FFB800"/>
<path d="M92.2895 82.6618L87.3599 82.6618L84.8951 86.9341H89.8247L92.2895 82.6618Z" fill="white" fill-opacity="0.4"/>
<path d="M84.9209 78.4043L89.8505 78.4043L92.3153 82.6766H87.3857L84.9209 78.4043Z" fill="#FFB800"/>
<path d="M84.5947 98.4688L88.1549 84.7191" stroke="#FFECCF" stroke-linecap="round"/>
<path d="M84.5557 98.2422L106.162 90.3853" stroke="#FFECCF" stroke-linecap="round"/>
<path d="M80.4844 95.9863L84.7567 98.4511L84.7567 103.381L80.4844 100.916L80.4844 95.9863Z" fill="#FFB800"/>
<path d="M80.4844 95.9863L84.7567 98.4511L84.7567 103.381L80.4844 100.916L80.4844 95.9863Z" fill="black" fill-opacity="0.4"/>
<path d="M88.9993 95.9863L84.727 98.4511V103.381L88.9993 100.916V95.9863Z" fill="#FFB800"/>
<path d="M88.9993 95.9863L84.727 98.4511V103.381L88.9993 100.916V95.9863Z" fill="white" fill-opacity="0.4"/>
<path d="M80.4844 95.9863L84.7567 93.5215L89.029 95.9863L84.7567 98.4511L80.4844 95.9863Z" fill="#FFB800"/>
<path d="M102.175 93.0282L106.447 90.5634L110.719 93.0282L106.447 95.493L102.175 93.0282Z" fill="#FFB800"/>
<path d="M102.175 93.0282L106.447 90.5634L110.719 93.0282L106.447 95.493L102.175 93.0282Z" fill="black" fill-opacity="0.4"/>
<path d="M106.432 85.6595V90.5891L110.705 93.0539V88.1243L106.432 85.6595Z" fill="#FFB800"/>
<path d="M106.432 85.6595V90.5891L110.705 93.0539V88.1243L106.432 85.6595Z" fill="white" fill-opacity="0.4"/>
<path d="M102.175 93.0282L102.175 88.0986L106.447 85.6338L106.447 90.5634L102.175 93.0282Z" fill="#FFB800"/>
<path d="M104.574 68.8958H109.517L111.988 73.1607H107.045L104.574 68.8958Z" fill="#FFB800"/>
<path d="M104.574 68.8958H109.517L111.988 73.1607H107.045L104.574 68.8958Z" fill="black" fill-opacity="0.4"/>
<path d="M111.962 64.6457L109.491 68.9106L111.962 73.1755L114.433 68.9106L111.962 64.6457Z" fill="#FFB800"/>
<path d="M111.962 64.6457L109.491 68.9106L111.962 73.1755L114.433 68.9106L111.962 64.6457Z" fill="white" fill-opacity="0.4"/>
<path d="M104.574 68.8958L107.045 64.6309H111.988L109.517 68.8958H104.574Z" fill="#FFB800"/>
<path d="M134.644 11.7363L137.109 16.0087L134.644 20.281L132.18 16.0087L134.644 11.7363Z" fill="#FFB800"/>
<path d="M134.644 11.7363L137.109 16.0087L134.644 20.281L132.18 16.0087L134.644 11.7363Z" fill="black" fill-opacity="0.4"/>
<path d="M142.013 15.9938L137.084 15.9938L134.619 20.2661H139.548L142.013 15.9938Z" fill="#FFB800"/>
<path d="M142.013 15.9938L137.084 15.9938L134.619 20.2661H139.548L142.013 15.9938Z" fill="white" fill-opacity="0.4"/>
<path d="M134.644 11.7363L139.574 11.7363L142.039 16.0087H137.109L134.644 11.7363Z" fill="#FFB800"/>
<path d="M87.3301 99.5234L103.781 112.905" stroke="#FFECCF" stroke-linecap="round"/>
<path d="M108.649 89.3057L121.049 96.5488" stroke="#FFECCF" stroke-linecap="round"/>
<path d="M89.292 27.8242L91.7568 32.0965L89.292 36.3689L86.8271 32.0965L89.292 27.8242Z" fill="#FFB800"/>
<path d="M89.292 27.8242L91.7568 32.0965L89.292 36.3689L86.8271 32.0965L89.292 27.8242Z" fill="black" fill-opacity="0.4"/>
<path d="M96.6606 32.0817L91.731 32.0817L89.2662 36.354H94.1958L96.6606 32.0817Z" fill="#FFB800"/>
<path d="M96.6606 32.0817L91.731 32.0817L89.2662 36.354H94.1958L96.6606 32.0817Z" fill="white" fill-opacity="0.4"/>
<path d="M89.292 27.8242L94.2216 27.8242L96.6864 32.0965H91.7568L89.292 27.8242Z" fill="#FFB800"/>
<path d="M108.155 44.584L93.1416 34.3379" stroke="#FFECCF" stroke-linecap="round"/>
<path d="M103.917 42.1191L108.189 44.5839L108.189 49.5135L103.917 47.0487L103.917 42.1191Z" fill="#FFB800"/>
<path d="M103.917 42.1191L108.189 44.5839L108.189 49.5135L103.917 47.0487L103.917 42.1191Z" fill="black" fill-opacity="0.4"/>
<path d="M112.432 42.1191L108.16 44.5839V49.5135L112.432 47.0487V42.1191Z" fill="#FFB800"/>
<path d="M112.432 42.1191L108.16 44.5839V49.5135L112.432 47.0487V42.1191Z" fill="white" fill-opacity="0.4"/>
<path d="M103.917 42.1191L108.189 39.6543L112.462 42.1191L108.189 44.5839L103.917 42.1191Z" fill="#FFB800"/>
<path d="M108.155 41.9238L111.476 20.8359" stroke="#FFECCF" stroke-linecap="round"/>
<path d="M110.277 45.9922L127.505 54.4624" stroke="#FFECCF" stroke-linecap="round"/>
<path d="M111.919 68.9043L141.382 69.2021" stroke="#FFECCF" stroke-linecap="round"/>
<path d="M123.635 51.998L127.907 54.4628L127.907 59.3924L123.635 56.9276L123.635 51.998Z" fill="#FFB800"/>
<path d="M123.635 51.998L127.907 54.4628L127.907 59.3924L123.635 56.9276L123.635 51.998Z" fill="black" fill-opacity="0.4"/>
<path d="M132.15 51.998L127.877 54.4628V59.3924L132.15 56.9276V51.998Z" fill="#FFB800"/>
<path d="M132.15 51.998L127.877 54.4628V59.3924L132.15 56.9276V51.998Z" fill="white" fill-opacity="0.4"/>
<path d="M123.635 51.998L127.907 49.5332L132.179 51.998L127.907 54.4628L123.635 51.998Z" fill="#FFB800"/>
<path d="M130.035 55.7402L141.382 69.2021" stroke="#FFECCF" stroke-linecap="round"/>
<path d="M138.188 18.2969L141.382 69.2017" stroke="#FFECCF" stroke-linecap="round"/>
<path d="M137.109 71.6659L141.382 69.2011L145.654 71.6659L141.382 74.1307L137.109 71.6659Z" fill="#FFB800"/>
<path d="M137.109 71.6659L141.382 69.2011L145.654 71.6659L141.382 74.1307L137.109 71.6659Z" fill="black" fill-opacity="0.4"/>
<path d="M141.367 64.2972V69.2268L145.639 71.6916V66.762L141.367 64.2972Z" fill="#FFB800"/>
<path d="M141.367 64.2972V69.2268L145.639 71.6916V66.762L141.367 64.2972Z" fill="white" fill-opacity="0.4"/>
<path d="M137.109 71.6659L137.109 66.7363L141.382 64.2715L141.382 69.2011L137.109 71.6659Z" fill="#FFB800"/>
<path d="M140.725 101.439L141.382 71.5186" stroke="#FFECCF" stroke-linecap="round"/>
<path d="M138.26 97.166L140.725 101.438L138.26 105.711L135.795 101.438L138.26 97.166Z" fill="#FFB800"/>
<path d="M138.26 97.166L140.725 101.438L138.26 105.711L135.795 101.438L138.26 97.166Z" fill="black" fill-opacity="0.4"/>
<path d="M145.628 101.423L140.699 101.423L138.234 105.696H143.164L145.628 101.423Z" fill="#FFB800"/>
<path d="M145.628 101.423L140.699 101.423L138.234 105.696H143.164L145.628 101.423Z" fill="white" fill-opacity="0.4"/>
<path d="M138.26 97.166L143.189 97.166L145.654 101.438H140.725L138.26 97.166Z" fill="#FFB800"/>
<path d="M103.78 112.911L137.957 101.439" stroke="#FFECCF" stroke-linecap="round"/>
<path d="M101.352 108.639L103.817 112.911L101.352 117.183L98.8877 112.911L101.352 108.639Z" fill="#FFB800"/>
<path d="M101.352 108.639L103.817 112.911L101.352 117.183L98.8877 112.911L101.352 108.639Z" fill="black" fill-opacity="0.4"/>
<path d="M108.721 112.896L103.792 112.896L101.327 117.168H106.256L108.721 112.896Z" fill="#FFB800"/>
<path d="M108.721 112.896L103.792 112.896L101.327 117.168H106.256L108.721 112.896Z" fill="white" fill-opacity="0.4"/>
<path d="M101.352 108.639L106.282 108.639L108.747 112.911H103.817L101.352 108.639Z" fill="#FFB800"/>
<path d="M104.585 110.58L120.667 96.5849" stroke="#FFECCF" stroke-linecap="round"/>
<path d="M115.978 96.8001H120.92L123.391 100.737H118.449L115.978 96.8001Z" fill="#FFB800"/>
<path d="M115.978 96.8001H120.92L123.391 100.737H118.449L115.978 96.8001Z" fill="black" fill-opacity="0.4"/>
<path d="M123.365 92.877L120.894 96.8138L123.366 100.751L125.837 96.8138L123.365 92.877Z" fill="#FFB800"/>
<path d="M123.365 92.877L120.894 96.8138L123.366 100.751L125.837 96.8138L123.365 92.877Z" fill="white" fill-opacity="0.4"/>
<path d="M115.978 96.8001L118.449 92.8633H123.391L120.92 96.8001H115.978Z" fill="#FFB800"/>
<path d="M123.635 96.8076L141.382 71.5181" stroke="#FFECCF" stroke-linecap="round"/>
<path d="M123.635 96.8076L137.957 101.439" stroke="#FFECCF" stroke-linecap="round"/>
<path opacity="0.4" fill-rule="evenodd" clip-rule="evenodd" d="M149.468 24.9538C149.468 37.6908 131.111 48.0163 108.468 48.0163C85.8241 48.0163 67.4678 37.6908 67.4678 24.9538C67.4678 24.6678 67.477 24.3831 67.4954 24.0996H67.4678V24.9538V111.225H67.4954C67.477 111.508 67.4678 111.793 67.4678 112.079C67.4678 124.816 85.8241 135.142 108.468 135.142C131.111 135.142 149.468 124.816 149.468 112.079C149.468 111.793 149.459 111.508 149.44 111.225H149.468V24.9538ZM149.468 24.9538C149.468 24.6678 149.459 24.3831 149.44 24.0996H149.468V24.9538Z" fill="url(#paint5_linear_115_5518)"/>
<path opacity="0.2" d="M149.468 24.0923C149.468 38.2094 131.117 48.0146 108.48 48.0146C85.843 48.0146 67.4922 38.1345 67.4922 24.0923C67.4922 10.0501 85.843 0.169922 108.48 0.169922C131.117 0.169922 149.468 9.97517 149.468 24.0923Z" fill="url(#paint6_radial_115_5518)"/>
<defs>
<linearGradient id="paint0_linear_115_5518" x1="76.9678" y1="112.663" x2="33.1436" y2="218.112" gradientUnits="userSpaceOnUse">
<stop offset="0.496905"/>
<stop offset="1" stop-color="#666666" stop-opacity="0"/>
</linearGradient>
<linearGradient id="paint1_linear_115_5518" x1="48.4678" y1="133.527" x2="168.468" y2="133.527" gradientUnits="userSpaceOnUse">
<stop stop-color="#1813FF"/>
<stop offset="0.415315" stop-color="#2722FF"/>
<stop offset="0.56221" stop-color="#706DFF"/>
<stop offset="1" stop-color="#C0BFFF"/>
</linearGradient>
<radialGradient id="paint2_radial_115_5518" cx="0" cy="0" r="1" gradientUnits="userSpaceOnUse" gradientTransform="translate(108.468 112.142) rotate(90) scale(23 41)">
<stop stop-color="#0500FF"/>
<stop offset="1" stop-color="#50CBFF"/>
</radialGradient>
<linearGradient id="paint3_linear_115_5518" x1="108.468" y1="0.183594" x2="108.468" y2="111.225" gradientUnits="userSpaceOnUse">
<stop stop-color="#FF00F5"/>
<stop offset="1" stop-color="#666666" stop-opacity="0"/>
</linearGradient>
<linearGradient id="paint4_linear_115_5518" x1="108.468" y1="0.183594" x2="108.468" y2="111.225" gradientUnits="userSpaceOnUse">
<stop stop-color="#FF00F5"/>
<stop offset="1" stop-color="#666666" stop-opacity="0"/>
</linearGradient>
<linearGradient id="paint5_linear_115_5518" x1="108.468" y1="24.0996" x2="108.468" y2="135.142" gradientUnits="userSpaceOnUse">
<stop stop-color="#FF00F5"/>
<stop offset="1" stop-color="#666666" stop-opacity="0"/>
</linearGradient>
<radialGradient id="paint6_radial_115_5518" cx="0" cy="0" r="1" gradientUnits="userSpaceOnUse" gradientTransform="translate(108.48 24.0923) rotate(90) scale(23.9224 40.9878)">
<stop stop-color="#F706ED" stop-opacity="0"/>
<stop offset="1" stop-color="#F706ED"/>
</radialGradient>
</defs>
</svg>
