<svg width="127" height="88" viewBox="0 0 127 88" fill="none" xmlns="http://www.w3.org/2000/svg">
<path opacity="0.3" d="M2.9962 58.2512C0.0227513 56.5583 0.0227522 53.8137 2.9962 52.1209L59.5272 19.9366C62.5006 18.2438 67.3215 18.2438 70.295 19.9366L120.536 48.0828C123.509 49.7757 123.509 52.5203 120.536 54.2131L64.0051 86.3974C61.0316 88.0902 56.2107 88.0902 53.2373 86.3974L2.9962 58.2512Z" fill="url(#paint0_linear_115_5663)"/>
<path fill-rule="evenodd" clip-rule="evenodd" d="M6.76611 48.4846C6.766 49.5341 7.46132 50.5837 8.85209 51.3844L61.7301 81.8293C64.5114 83.4307 69.0208 83.4307 71.8021 81.8293L124.68 51.3844C126.071 50.5837 126.766 49.5341 126.766 48.4846V41.2119H117.084L71.8021 15.1405C69.0208 13.5391 64.5114 13.5391 61.7301 15.1405L16.4481 41.2119H6.76611V48.4846Z" fill="url(#paint1_linear_115_5663)"/>
<path d="M8.85209 44.112C6.07079 42.5106 6.07079 39.9143 8.85209 38.3129L61.7301 7.86801C64.5114 6.26665 69.0208 6.26665 71.8021 7.86801L124.68 38.3129C127.461 39.9143 127.461 42.5106 124.68 44.112L71.8021 74.5569C69.0208 76.1582 64.5114 76.1582 61.7301 74.5569L8.85209 44.112Z" fill="#50CBFF"/>
<circle cx="1" cy="1" r="1" transform="matrix(-1 0 0 1 76.7661 55.667)" fill="#50CBFF"/>
<circle cx="1" cy="1" r="1" transform="matrix(-1 0 0 1 76.7661 55.667)" fill="black" fill-opacity="0.4"/>
<circle cx="1" cy="1" r="1" transform="matrix(-1 0 0 1 45.7661 37.667)" fill="#50CBFF"/>
<circle cx="1" cy="1" r="1" transform="matrix(-1 0 0 1 45.7661 37.667)" fill="black" fill-opacity="0.4"/>
<circle cx="1" cy="1" r="1" transform="matrix(-1 0 0 1 89.7661 47.667)" fill="#50CBFF"/>
<circle cx="1" cy="1" r="1" transform="matrix(-1 0 0 1 89.7661 47.667)" fill="black" fill-opacity="0.4"/>
<rect x="74.7661" y="40.667" width="2" height="16" fill="#50CBFF"/>
<rect x="74.7661" y="40.667" width="2" height="16" fill="black" fill-opacity="0.4"/>
<rect x="43.7661" y="22.667" width="2" height="16" fill="#50CBFF"/>
<rect x="43.7661" y="22.667" width="2" height="16" fill="black" fill-opacity="0.4"/>
<rect x="87.7661" y="32.667" width="2" height="16" fill="#50CBFF"/>
<rect x="87.7661" y="32.667" width="2" height="16" fill="black" fill-opacity="0.4"/>
<rect width="40" height="20" rx="2" transform="matrix(0.866025 0.5 -0.866025 0.5 58.0864 13.667)" fill="url(#paint2_linear_115_5663)"/>
<rect width="40" height="20" rx="2" transform="matrix(0.866025 0.5 -0.866025 0.5 58.0864 12.667)" fill="#50CBFF"/>
<rect width="40" height="20" rx="2" transform="matrix(0.866025 0.5 -0.866025 0.5 58.0864 12.667)" fill="white" fill-opacity="0.4"/>
<rect width="25.6148" height="12.8074" rx="1" transform="matrix(0.866025 0.5 -0.866025 0.5 59.8574 19.667)" fill="#50CBFF"/>
<rect width="25.6148" height="12.8074" rx="1" transform="matrix(0.866025 0.5 -0.866025 0.5 59.8574 19.667)" fill="black" fill-opacity="0.4"/>
<rect width="10.7472" height="5.37359" rx="0.5" transform="matrix(0.866025 0.5 -0.866025 0.5 59.4199 23.9355)" fill="url(#paint3_linear_115_5663)"/>
<rect width="10.7472" height="5.37359" rx="0.5" transform="matrix(0.866025 0.5 -0.866025 0.5 59.4199 23.667)" fill="#50CBFF"/>
<rect width="10.7472" height="5.37359" rx="0.5" transform="matrix(0.866025 0.5 -0.866025 0.5 59.4199 23.667)" fill="white" fill-opacity="0.4"/>
<ellipse cx="1.5" cy="2" rx="1.5" ry="2" transform="matrix(-0.5 -0.866025 -0.866025 0.5 74.73 34.2656)" fill="#96E0FF"/>
<ellipse cx="1.5" cy="2" rx="1.5" ry="2" transform="matrix(-0.5 -0.866025 -0.866025 0.5 74.73 34.2656)" fill="white" fill-opacity="0.6"/>
<rect width="23.4267" height="15.6178" rx="1" transform="matrix(0.866025 0.5 -2.20305e-08 1 61.478 0.666992)" fill="#9592FF"/>
<rect width="23.4267" height="15.6178" rx="1" transform="matrix(0.866025 0.5 -2.20305e-08 1 60.7661 1.02246)" fill="#221DFF"/>
<rect width="6.9282" height="4.6188" rx="0.25" transform="matrix(0.866025 0.5 -2.20305e-08 1 62.7661 4.66699)" fill="#221DFF"/>
<rect width="6.9282" height="4.6188" rx="0.25" transform="matrix(0.866025 0.5 -2.20305e-08 1 62.7661 4.66699)" fill="black" fill-opacity="0.3"/>
<rect width="10.3923" height="10.3434" rx="0.25" transform="matrix(0.866025 0.5 -2.20305e-08 1 69.7661 8.93457)" fill="#221DFF"/>
<rect width="10.3923" height="10.3434" rx="0.25" transform="matrix(0.866025 0.5 -2.20305e-08 1 69.7661 8.93457)" fill="black" fill-opacity="0.3"/>
<rect width="6.9282" height="4.6188" rx="0.25" transform="matrix(0.866025 0.5 -2.20305e-08 1 62.7661 10.667)" fill="#221DFF"/>
<rect width="6.9282" height="4.6188" rx="0.25" transform="matrix(0.866025 0.5 -2.20305e-08 1 62.7661 10.667)" fill="black" fill-opacity="0.3"/>
<defs>
<linearGradient id="paint0_linear_115_5663" x1="49.2661" y1="47.167" x2="31.6453" y2="79.9678" gradientUnits="userSpaceOnUse">
<stop offset="0.655"/>
<stop offset="1" stop-color="#666666" stop-opacity="0"/>
</linearGradient>
<linearGradient id="paint1_linear_115_5663" x1="6.76611" y1="19.394" x2="126.766" y2="19.394" gradientUnits="userSpaceOnUse">
<stop stop-color="#1813FF"/>
<stop offset="0.415315" stop-color="#2722FF"/>
<stop offset="0.56221" stop-color="#706DFF"/>
<stop offset="1" stop-color="#C0BFFF"/>
</linearGradient>
<linearGradient id="paint2_linear_115_5663" x1="1.07748e-07" y1="2.14286" x2="40" y2="2.14286" gradientUnits="userSpaceOnUse">
<stop stop-color="#1813FF"/>
<stop offset="0.415315" stop-color="#2722FF"/>
<stop offset="0.56221" stop-color="#706DFF"/>
<stop offset="1" stop-color="#C0BFFF"/>
</linearGradient>
<linearGradient id="paint3_linear_115_5663" x1="2.89497e-08" y1="0.575742" x2="10.7472" y2="0.575742" gradientUnits="userSpaceOnUse">
<stop stop-color="#1813FF"/>
<stop offset="0.415315" stop-color="#2722FF"/>
<stop offset="0.56221" stop-color="#706DFF"/>
<stop offset="1" stop-color="#C0BFFF"/>
</linearGradient>
</defs>
</svg>
