<svg width="153" height="154" viewBox="0 0 153 154" fill="none" xmlns="http://www.w3.org/2000/svg">
<path opacity="0.3" d="M2.46397 124.554C-0.509475 122.861 -0.509474 120.116 2.46397 118.424L58.9949 86.2394C61.9684 84.5465 66.7893 84.5465 69.7627 86.2394L120.004 114.386C122.977 116.078 122.977 118.823 120.004 120.516L63.4728 152.7C60.4994 154.393 55.6785 154.393 52.705 152.7L2.46397 124.554Z" fill="url(#paint0_linear_115_5610)"/>
<path fill-rule="evenodd" clip-rule="evenodd" d="M152.234 63.1523H32.2339V99.516H32.2617C32.0826 100.683 32.7687 101.885 34.3199 102.778L87.1979 133.223C89.9792 134.825 94.4886 134.825 97.2699 133.223L150.148 102.778C151.699 101.885 152.385 100.683 152.206 99.516H152.234V63.1523Z" fill="url(#paint1_linear_115_5610)"/>
<path d="M34.3199 66.4147C31.5386 64.8133 31.5386 62.217 34.3199 60.6157L87.1979 30.1707C89.9792 28.5694 94.4886 28.5694 97.2699 30.1707L150.148 60.6157C152.929 62.217 152.929 64.8133 150.148 66.4147L97.2699 96.8596C94.4886 98.461 89.9792 98.461 87.1979 96.8596L34.3199 66.4147Z" fill="#50CBFF"/>
<rect width="65.8179" height="43.8786" rx="4" transform="matrix(0.866025 0.5 -2.20305e-08 1 60.2339 0.726562)" fill="#9592FF"/>
<rect x="0.866025" y="1.5" width="63.8179" height="41.9621" rx="3" transform="matrix(0.866025 0.5 -2.20305e-08 1 58.3499 1.33164)" fill="#221DFF" stroke="#4E4AFF" stroke-width="2"/>
<path d="M100.984 41.833L103.834 43.4785" stroke="white" stroke-linecap="round"/>
<path d="M100.984 55.0215L103.834 56.6669" stroke="white" stroke-linecap="round"/>
<path d="M91.0093 36.0742L93.8593 37.7197" stroke="white" stroke-linecap="round"/>
<path d="M91.0093 49.2627L93.8593 50.9081" stroke="white" stroke-linecap="round"/>
<path d="M105.259 44.3008L108.821 46.3576" stroke="white" stroke-linecap="round"/>
<path d="M105.259 57.4893L108.821 59.5461" stroke="white" stroke-linecap="round"/>
<path d="M64.6465 20.8535L71.059 24.5558" stroke="white" stroke-linecap="round"/>
<path d="M64.6465 34.042L71.059 37.7443" stroke="white" stroke-linecap="round"/>
<path d="M72.4839 25.3779L78.8964 29.0802" stroke="white" stroke-linecap="round"/>
<path d="M72.4839 38.5664L78.8964 42.2687" stroke="white" stroke-linecap="round"/>
<path d="M69.6338 19.3369L73.1963 21.3937" stroke="white" stroke-linecap="round"/>
<path d="M69.6338 32.5254L73.1963 34.5822" stroke="white" stroke-linecap="round"/>
<path d="M81.0342 25.9189L88.8717 30.4439" stroke="white" stroke-linecap="round"/>
<path d="M81.0342 39.1074L88.8717 43.6324" stroke="white" stroke-linecap="round"/>
<path d="M76.7593 23.4502L79.6093 25.0956" stroke="white" stroke-linecap="round"/>
<path d="M76.7593 36.6387L79.6093 38.2841" stroke="white" stroke-linecap="round"/>
<path d="M94.5718 33.7344L97.4218 35.3798" stroke="white" stroke-linecap="round"/>
<path d="M94.5718 46.9229L97.4218 48.5683" stroke="white" stroke-linecap="round"/>
<path d="M103.834 39.082L106.684 40.7275" stroke="white" stroke-linecap="round"/>
<path d="M103.834 52.2705L106.684 53.916" stroke="white" stroke-linecap="round"/>
<path d="M74.6216 22.2168L75.3341 22.6282" stroke="white" stroke-linecap="round"/>
<path d="M74.6216 35.4053L75.3341 35.8166" stroke="white" stroke-linecap="round"/>
<path d="M98.8467 36.2031L99.5592 36.6145" stroke="white" stroke-linecap="round"/>
<path d="M98.8467 49.3916L99.5592 49.803" stroke="white" stroke-linecap="round"/>
<path d="M108.109 41.5508L108.821 41.9621" stroke="white" stroke-linecap="round"/>
<path d="M108.109 54.7393L108.821 55.1506" stroke="white" stroke-linecap="round"/>
<path d="M100.984 37.4365L102.409 38.2592" stroke="white" stroke-linecap="round"/>
<path d="M100.984 50.625L102.409 51.4477" stroke="white" stroke-linecap="round"/>
<path d="M90.2964 31.2666L93.1464 32.912" stroke="white" stroke-linecap="round"/>
<path d="M90.2964 44.4551L93.1464 46.1005" stroke="white" stroke-linecap="round"/>
<path d="M64.6465 16.457L68.209 18.5138" stroke="white" stroke-linecap="round"/>
<path d="M64.6465 29.6455L68.209 31.7023" stroke="white" stroke-linecap="round"/>
<path d="M103.834 47.875L100.271 45.8182" stroke="white" stroke-linecap="round"/>
<path d="M103.834 61.0635L100.271 59.0067" stroke="white" stroke-linecap="round"/>
<path d="M92.4341 41.293L84.5966 36.768" stroke="white" stroke-linecap="round"/>
<path d="M92.4341 54.4814L84.5966 49.9565" stroke="white" stroke-linecap="round"/>
<path d="M96.709 43.7607L93.859 42.1153" stroke="white" stroke-linecap="round"/>
<path d="M96.709 56.9492L93.859 55.3038" stroke="white" stroke-linecap="round"/>
<path d="M78.8965 33.4775L76.0465 31.8321" stroke="white" stroke-linecap="round"/>
<path d="M78.8965 46.666L76.0465 45.0206" stroke="white" stroke-linecap="round"/>
<path d="M69.6338 28.1299L66.7838 26.4844" stroke="white" stroke-linecap="round"/>
<path d="M69.6338 41.3184L66.7838 39.6729" stroke="white" stroke-linecap="round"/>
<path d="M98.8467 44.9951L98.1342 44.5838" stroke="white" stroke-linecap="round"/>
<path d="M98.8467 58.1836L98.1342 57.7722" stroke="white" stroke-linecap="round"/>
<path d="M74.6216 31.0088L73.9091 30.5974" stroke="white" stroke-linecap="round"/>
<path d="M74.6216 44.1973L73.9091 43.7859" stroke="white" stroke-linecap="round"/>
<path d="M65.3594 25.6611L64.6469 25.2498" stroke="white" stroke-linecap="round"/>
<path d="M65.3594 38.8496L64.6469 38.4382" stroke="white" stroke-linecap="round"/>
<path d="M72.4839 29.7744L71.0589 28.9517" stroke="white" stroke-linecap="round"/>
<path d="M72.4839 42.9629L71.0589 42.1402" stroke="white" stroke-linecap="round"/>
<path d="M83.1714 35.9443L80.3214 34.2989" stroke="white" stroke-linecap="round"/>
<path d="M83.1714 49.1338L80.3214 47.4883" stroke="white" stroke-linecap="round"/>
<path d="M108.821 50.7539L105.259 48.6971" stroke="white" stroke-linecap="round"/>
<path d="M108.821 63.9424L105.259 61.8856" stroke="white" stroke-linecap="round"/>
<path d="M80.3218 29.9033L84.5968 32.3715" stroke="white" stroke-linecap="round"/>
<path d="M80.3218 43.0918L84.5968 45.56" stroke="white" stroke-linecap="round"/>
<path d="M86.0215 33.1943L89.584 35.2511" stroke="white" stroke-linecap="round"/>
<path d="M86.0215 46.3828L89.584 48.4396" stroke="white" stroke-linecap="round"/>
<path d="M95.2842 38.542L99.5592 41.0102" stroke="white" stroke-linecap="round"/>
<path d="M95.2842 51.7305L99.5592 54.1986" stroke="white" stroke-linecap="round"/>
<defs>
<linearGradient id="paint0_linear_115_5610" x1="76.7339" y1="41.4697" x2="32.9098" y2="146.919" gradientUnits="userSpaceOnUse">
<stop offset="0.655"/>
<stop offset="1" stop-color="#666666" stop-opacity="0"/>
</linearGradient>
<linearGradient id="paint1_linear_115_5610" x1="32.2339" y1="70.7886" x2="152.234" y2="70.7886" gradientUnits="userSpaceOnUse">
<stop stop-color="#1813FF"/>
<stop offset="0.415315" stop-color="#2722FF"/>
<stop offset="0.56221" stop-color="#706DFF"/>
<stop offset="1" stop-color="#C0BFFF"/>
</linearGradient>
</defs>
</svg>
