<svg width="136" height="133" viewBox="0 0 136 133" fill="none" xmlns="http://www.w3.org/2000/svg">
<path opacity="0.3" d="M2.23008 103.084C-0.743362 101.391 -0.743361 98.6467 2.23009 96.9539L58.7611 64.7696C61.7345 63.0768 66.5554 63.0768 69.5288 64.7696L119.77 92.9158C122.743 94.6087 122.743 97.3533 119.77 99.0461L63.2389 131.23C60.2655 132.923 55.4446 132.923 52.4711 131.23L2.23008 103.084Z" fill="url(#paint0_linear_115_5664)"/>
<path fill-rule="evenodd" clip-rule="evenodd" d="M16 87.8636C15.9999 88.9131 16.6952 89.9626 18.086 90.7633L70.964 121.208C73.7453 122.81 78.2547 122.81 81.036 121.208L133.914 90.7633C135.305 89.9626 136 88.9131 136 87.8636V66.0454H101.055L81.036 54.5194C78.2547 52.918 73.7453 52.918 70.964 54.5194L50.9451 66.0454H16V87.8636Z" fill="url(#paint1_linear_115_5664)"/>
<path d="M18.086 68.945C15.3047 67.3436 15.3047 64.7473 18.086 63.1459L70.964 32.701C73.7453 31.0997 78.2547 31.0997 81.036 32.701L133.914 63.1459C136.695 64.7473 136.695 67.3436 133.914 68.945L81.036 99.3899C78.2547 100.991 73.7453 100.991 70.964 99.3899L18.086 68.945Z" fill="#50CBFF"/>
<rect width="65.8179" height="43.8786" rx="4" transform="matrix(-0.866025 0.5 2.20305e-08 1 104 0.195312)" fill="#1A15FF"/>
<rect width="65.8179" height="43.8786" rx="4" transform="matrix(-0.866025 0.5 2.20305e-08 1 104 0.195312)" fill="black" fill-opacity="0.4"/>
<rect x="0.866025" y="0.5" width="63.8179" height="42.1481" rx="3" transform="matrix(0.866025 -0.5 2.20305e-08 1 49.116 34.56)" fill="#221DFF"/>
<rect x="0.866025" y="0.5" width="63.8179" height="42.1481" rx="3" transform="matrix(0.866025 -0.5 2.20305e-08 1 49.116 34.56)" stroke="#221DFF" stroke-width="2"/>
<rect x="0.866025" y="0.5" width="63.8179" height="42.1481" rx="3" transform="matrix(0.866025 -0.5 2.20305e-08 1 49.116 34.56)" stroke="white" stroke-opacity="0.2" stroke-width="2"/>
<path d="M51.4565 55.0946C61.5581 51.2834 63.6678 39.7028 69.4977 36.3378C77.7643 31.5665 79.1068 49.3616 87.7373 44.3788C95.3717 39.971 96.5599 24.3891 103.544 20.0743" stroke="#FF00F5" stroke-linecap="round"/>
<path d="M51.3374 57.6037C61.439 53.0456 63.5486 45.295 69.3786 41.9296C77.6451 37.1578 78.9876 48.0894 87.6181 43.1065C95.2526 38.6988 96.4407 28.6224 103.424 24.4121" stroke="#00FFD1" stroke-linecap="round"/>
<path d="M103.424 23.5099C91.9297 28.2005 94.3685 39.3104 83.4562 45.5082C72.5439 51.7059 73.7364 30.5242 66.6402 34.6212C57.722 39.7701 58.4401 57.7707 51.4564 62.0075" stroke="#FFB800" stroke-linecap="round"/>
<defs>
<linearGradient id="paint0_linear_115_5664" x1="61.1381" y1="71.2907" x2="31.3987" y2="125.101" gradientUnits="userSpaceOnUse">
<stop offset="0.655"/>
<stop offset="1" stop-color="#666666" stop-opacity="0"/>
</linearGradient>
<linearGradient id="paint1_linear_115_5664" x1="16" y1="58.7729" x2="136" y2="58.7729" gradientUnits="userSpaceOnUse">
<stop stop-color="#1813FF"/>
<stop offset="0.415315" stop-color="#2722FF"/>
<stop offset="0.56221" stop-color="#706DFF"/>
<stop offset="1" stop-color="#C0BFFF"/>
</linearGradient>
</defs>
</svg>
