<svg width="137" height="109" viewBox="0 0 137 109" fill="none" xmlns="http://www.w3.org/2000/svg">
<path opacity="0.3" d="M2.9962 79.4319C0.0227513 77.739 0.0227522 74.9944 2.9962 73.3015L59.5272 41.1173C62.5006 39.4244 67.3215 39.4244 70.295 41.1173L120.536 69.2635C123.509 70.9563 123.509 73.701 120.536 75.3938L64.0051 107.578C61.0316 109.271 56.2107 109.271 53.2373 107.578L2.9962 79.4319Z" fill="url(#paint0_linear_115_5634)"/>
<path fill-rule="evenodd" clip-rule="evenodd" d="M16.7661 64.2113C16.766 65.2607 17.4613 66.3102 18.8521 67.111L71.7301 97.5559C74.5114 99.1573 79.0208 99.1573 81.8021 97.5559L134.68 67.111C136.071 66.3102 136.766 65.2607 136.766 64.2113V42.3931H101.821L81.8021 30.867C79.0208 29.2657 74.5114 29.2657 71.7301 30.867L51.7112 42.3931H16.7661V64.2113Z" fill="url(#paint1_linear_115_5634)"/>
<path d="M18.8521 45.2926C16.0708 43.6913 16.0708 41.095 18.8521 39.4936L71.7301 9.04867C74.5114 7.44732 79.0208 7.44732 81.8021 9.04868L134.68 39.4936C137.461 41.095 137.461 43.6913 134.68 45.2926L81.8021 75.7375C79.0208 77.3389 74.5114 77.3389 71.7301 75.7375L18.8521 45.2926Z" fill="#50CBFF"/>
<path fill-rule="evenodd" clip-rule="evenodd" d="M106.701 17.9082H47.7661V42.723H47.7663C47.7715 43.2345 48.113 43.7451 48.7907 44.1353L74.7606 59.0876C76.1265 59.8741 78.3412 59.8741 79.7072 59.0876L105.677 44.1353C106.368 43.7372 106.71 43.214 106.701 42.6923V17.9082Z" fill="url(#paint2_linear_115_5634)"/>
<path d="M48.7906 19.2379C47.4246 18.4514 47.4246 17.1763 48.7906 16.3898L74.7604 1.43751C76.1264 0.651039 78.3411 0.651039 79.707 1.43751L105.677 16.3898C107.043 17.1763 107.043 18.4514 105.677 19.2379L79.707 34.1902C78.3411 34.9767 76.1264 34.9767 74.7604 34.1902L48.7906 19.2379Z" fill="#50CBFF"/>
<ellipse cx="77.2335" cy="17.9075" rx="17.0602" ry="8.99538" fill="#0600FF"/>
<ellipse cx="77.2338" cy="10.1536" rx="0.930556" ry="0.620371" fill="#50CBFF"/>
<ellipse cx="89.0209" cy="13.8753" rx="0.930556" ry="0.620371" fill="#50CBFF"/>
<ellipse cx="65.4467" cy="13.8753" rx="0.930556" ry="0.620371" fill="#50CBFF"/>
<ellipse cx="89.0209" cy="21.9407" rx="0.930556" ry="0.620371" fill="#50CBFF"/>
<ellipse cx="65.4467" cy="21.9407" rx="0.930556" ry="0.620371" fill="#50CBFF"/>
<ellipse cx="77.2338" cy="25.6624" rx="0.930556" ry="0.620371" fill="#50CBFF"/>
<ellipse cx="77.2339" cy="16.667" rx="10.8565" ry="5.89352" fill="#B1AFFE"/>
<ellipse cx="77.2339" cy="16.0466" rx="9.61575" ry="5.27315" fill="#605DFF"/>
<ellipse cx="77.2339" cy="17.2873" rx="7.13427" ry="4.03241" fill="#1E19FF"/>
<ellipse cx="77.2336" cy="18.5277" rx="4.03241" ry="2.1713" fill="#030080"/>
<defs>
<linearGradient id="paint0_linear_115_5634" x1="61.9043" y1="47.6384" x2="32.1649" y2="101.448" gradientUnits="userSpaceOnUse">
<stop offset="0.655"/>
<stop offset="1" stop-color="#666666" stop-opacity="0"/>
</linearGradient>
<linearGradient id="paint1_linear_115_5634" x1="16.7661" y1="35.1206" x2="136.766" y2="35.1206" gradientUnits="userSpaceOnUse">
<stop stop-color="#1813FF"/>
<stop offset="0.415315" stop-color="#2722FF"/>
<stop offset="0.56221" stop-color="#706DFF"/>
<stop offset="1" stop-color="#C0BFFF"/>
</linearGradient>
<linearGradient id="paint2_linear_115_5634" x1="47.7661" y1="28.4237" x2="106.701" y2="28.4237" gradientUnits="userSpaceOnUse">
<stop stop-color="#1813FF"/>
<stop offset="0.415315" stop-color="#2722FF"/>
<stop offset="0.56221" stop-color="#706DFF"/>
<stop offset="1" stop-color="#C0BFFF"/>
</linearGradient>
</defs>
</svg>
