<svg width="32" height="32" viewBox="0 0 32 32" fill="none" xmlns="http://www.w3.org/2000/svg">
<path d="M6.61154 7.8189C6.80377 6.35874 8.1433 5.33088 9.60346 5.52312C11.0636 5.71535 12.0915 7.05488 11.8992 8.51504L9.81082 24.3782C9.61859 25.8383 8.27906 26.8662 6.8189 26.6739C5.35874 26.4817 4.33088 25.1422 4.52312 23.682L6.61154 7.8189Z" fill="url(#paint0_linear_147_2304)"/>
<path d="M22.2326 24.3782C22.4249 25.8383 23.7644 26.8662 25.2246 26.6739C26.6847 26.4817 27.7126 25.1422 27.5203 23.682L25.4319 7.8189C25.2397 6.35874 23.9002 5.33088 22.44 5.52312C20.9798 5.71535 19.952 7.05488 20.1442 8.51504L22.2326 24.3782Z" fill="url(#paint1_linear_147_2304)"/>
<path d="M25.1976 9.29428C25.82 7.95951 25.2425 6.3729 23.9077 5.75048C22.573 5.12807 20.9864 5.70555 20.3639 7.04032L13.602 21.5412C12.9796 22.876 13.5571 24.4626 14.8919 25.085C16.2267 25.7075 17.8133 25.13 18.4357 23.7952L25.1976 9.29428Z" fill="url(#paint2_linear_147_2304)"/>
<path d="M18.4378 21.5412C19.0602 22.876 18.4827 24.4626 17.148 25.085C15.8132 25.7075 14.2266 25.13 13.6042 23.7952L6.84228 9.29428C6.21986 7.95951 6.79734 6.3729 8.13212 5.75048C9.46689 5.12807 11.0535 5.70555 11.6759 7.04032L18.4378 21.5412Z" fill="url(#paint3_linear_147_2304)"/>
<defs>
<linearGradient id="paint0_linear_147_2304" x1="9.60345" y1="5.52312" x2="6.81889" y2="26.6739" gradientUnits="userSpaceOnUse">
<stop stop-color="#737375"/>
<stop offset="1" stop-color="#E3E3E3"/>
</linearGradient>
<linearGradient id="paint1_linear_147_2304" x1="25.2245" y1="26.6739" x2="22.44" y2="5.52312" gradientUnits="userSpaceOnUse">
<stop stop-color="#737375"/>
<stop offset="1" stop-color="#E3E3E3"/>
</linearGradient>
<linearGradient id="paint2_linear_147_2304" x1="23.9077" y1="5.75048" x2="14.8919" y2="25.085" gradientUnits="userSpaceOnUse">
<stop stop-color="#1813FF"/>
<stop offset="1" stop-color="#39A4FB"/>
</linearGradient>
<linearGradient id="paint3_linear_147_2304" x1="17.148" y1="25.085" x2="8.1321" y2="5.75048" gradientUnits="userSpaceOnUse">
<stop stop-color="#1813FF"/>
<stop offset="1" stop-color="#39A4FB"/>
</linearGradient>
</defs>
</svg>
