<svg width="344" height="344" viewBox="0 0 344 344" fill="none" xmlns="http://www.w3.org/2000/svg">
<path d="M311.723 172.16L171.723 312.16L31.7227 172.16L171.723 32.1602L311.723 172.16Z" fill="url(#paint0_diamond_752_2204)"/>
<path d="M331.402 172.16L171.723 331.84L12.043 172.16L171.723 12.4805L331.402 172.16Z" stroke="#2F78E6" stroke-width="8" stroke-linecap="round" stroke-linejoin="round" stroke-dasharray="0 24"/>
<g opacity="0.25" filter="url(#filter0_f_752_2204)">
<path d="M171.924 12.1602L331.744 171.979L171.924 331.798L12.1055 171.979L171.924 12.1602Z" stroke="#2F78E6" stroke-width="16" stroke-linecap="round" stroke-linejoin="round" stroke-dasharray="0 24"/>
</g>
<path fill-rule="evenodd" clip-rule="evenodd" d="M119.18 148.635L150.949 180.404L149.458 192.335L109.113 151.99C107.259 150.137 107.259 147.132 109.113 145.279L121.59 132.801L127.925 139.89L119.18 148.635ZM194.937 192.335L193.446 180.404L225.214 148.635L216.47 139.89L222.804 132.801L235.282 145.279C237.135 147.132 237.135 150.137 235.282 151.99L194.937 192.335ZM199.093 109.09L189.881 113.301L172.197 95.6174L154.513 113.301L145.301 109.09L168.841 85.5501C170.695 83.6968 173.7 83.6968 175.553 85.5502L199.093 109.09ZM126.913 108.512C126.001 108.094 124.925 108.296 124.226 109.016L118.293 115.117C117.425 116.01 117.395 117.423 118.225 118.352L146.7 150.217C147.135 150.703 147.75 150.989 148.403 151.007C149.055 151.026 149.686 150.775 150.147 150.313L169.13 131.33C169.68 130.781 169.925 129.997 169.787 129.232C169.649 128.467 169.146 127.818 168.439 127.494L126.913 108.512ZM217.482 108.512C218.395 108.094 219.471 108.296 220.17 109.016L226.102 115.117C226.971 116.01 227 117.423 226.17 118.352L197.696 150.217C197.261 150.703 196.645 150.989 195.993 151.007C195.341 151.026 194.71 150.775 194.249 150.313L175.266 131.33C174.716 130.781 174.471 129.997 174.608 129.232C174.746 128.467 175.25 127.818 175.957 127.494L217.482 108.512ZM172.198 136.771C172.827 136.771 173.431 137.021 173.876 137.466L183.367 146.958C183.812 147.403 184.062 148.006 184.062 148.635C184.062 149.265 183.812 149.868 183.367 150.313L173.876 159.805C172.949 160.731 171.447 160.731 170.52 159.805L161.029 150.313C160.102 149.387 160.102 147.884 161.029 146.958L170.52 137.466C170.965 137.021 171.569 136.771 172.198 136.771ZM161.936 160.628C162.794 160.334 163.743 160.554 164.384 161.195L172.198 169.008L180.011 161.195C180.652 160.554 181.602 160.334 182.459 160.628C183.317 160.922 183.931 161.679 184.044 162.578L193.535 238.51C193.626 239.237 193.376 239.964 192.859 240.482L173.876 259.465C172.949 260.392 171.447 260.392 170.52 259.465L151.537 240.482C151.019 239.964 150.77 239.237 150.86 238.51L160.352 162.578C160.464 161.679 161.079 160.922 161.936 160.628Z" fill="#2F78E6"/>
<defs>
<filter id="filter0_f_752_2204" x="0.105469" y="0.160156" width="343.638" height="343.638" filterUnits="userSpaceOnUse" color-interpolation-filters="sRGB">
<feFlood flood-opacity="0" result="BackgroundImageFix"/>
<feBlend mode="normal" in="SourceGraphic" in2="BackgroundImageFix" result="shape"/>
<feGaussianBlur stdDeviation="2" result="effect1_foregroundBlur_752_2204"/>
</filter>
<radialGradient id="paint0_diamond_752_2204" cx="0" cy="0" r="1" gradientUnits="userSpaceOnUse" gradientTransform="translate(171.723 172.16) rotate(90) scale(140)">
<stop offset="0.755" stop-color="#0C1A3A"/>
<stop offset="1" stop-opacity="0"/>
</radialGradient>
</defs>
</svg>
