<svg width="511" height="704" viewBox="0 0 511 704" fill="none" xmlns="http://www.w3.org/2000/svg">
<path opacity="0.05" fill-rule="evenodd" clip-rule="evenodd" d="M46.2107 257.898L171.817 384.975L165.92 432.701L6.40773 271.321C-0.919779 263.908 -0.919758 251.888 6.40775 244.475L55.7407 194.565L80.7852 222.919L46.2107 257.898ZM345.733 432.699L339.836 384.973L465.441 257.898L430.867 222.919L455.912 194.565L505.244 244.475C512.571 251.888 512.571 263.908 505.244 271.321L345.733 432.699ZM362.164 99.7202L325.743 116.565L255.826 45.8288L185.909 116.564L149.488 99.7199L242.558 5.55996C249.886 -1.85333 261.766 -1.85331 269.093 5.55998L362.164 99.7202ZM76.7872 97.4055C73.1798 95.7371 68.9251 96.5442 66.1601 99.4215L42.706 123.828C39.2723 127.401 39.1548 133.053 42.4371 136.769L155.017 264.226C156.736 266.172 159.17 267.316 161.749 267.389C164.327 267.462 166.822 266.458 168.646 264.613L243.699 188.681C245.872 186.482 246.843 183.346 246.298 180.286C245.753 177.226 243.761 174.63 240.966 173.337L76.7872 97.4055ZM434.87 97.4055C438.478 95.7371 442.732 96.5442 445.497 99.4215L468.951 123.828C472.385 127.401 472.503 133.053 469.22 136.769L356.641 264.226C354.922 266.172 352.487 267.316 349.908 267.389C347.33 267.462 344.835 266.458 343.011 264.613L267.958 188.681C265.785 186.482 264.814 183.346 265.359 180.286C265.904 177.226 267.896 174.63 270.692 173.337L434.87 97.4055ZM255.829 210.444C258.317 210.444 260.703 211.444 262.462 213.224L299.989 251.189C301.748 252.969 302.737 255.384 302.737 257.901C302.737 260.418 301.748 262.832 299.989 264.612L262.462 302.578C258.799 306.285 252.859 306.285 249.195 302.578L211.668 264.612C208.005 260.906 208.005 254.896 211.668 251.189L249.195 213.224C250.954 211.444 253.34 210.444 255.829 210.444ZM215.258 305.872C218.647 304.696 222.402 305.575 224.936 308.138L255.829 339.393L286.721 308.138C289.255 305.575 293.011 304.696 296.4 305.872C299.789 307.049 302.22 310.076 302.664 313.673L340.191 617.4C340.55 620.306 339.563 623.217 337.516 625.288L262.463 701.22C258.799 704.927 252.859 704.927 249.195 701.22L174.142 625.288C172.095 623.217 171.107 620.306 171.466 617.4L208.993 313.673C209.437 310.076 211.868 307.049 215.258 305.872Z" fill="white"/>
</svg>
