<svg width="376" height="376" viewBox="0 0 376 376" fill="none" xmlns="http://www.w3.org/2000/svg">
<path d="M351.779 187.999L187.78 24.0001V187.999H351.779Z" fill="url(#paint0_linear_758_2775)"/>
<path d="M351.779 187.999L187.78 351.998V187.999H351.779Z" fill="url(#paint1_linear_758_2775)"/>
<path d="M23.7812 187.999L187.78 24.0001V187.999H23.7812Z" fill="url(#paint2_linear_758_2775)"/>
<path d="M23.7812 187.999L187.78 351.998V187.999H23.7812Z" fill="url(#paint3_linear_758_2775)"/>
<path fill-rule="evenodd" clip-rule="evenodd" d="M135.238 164.475L167.008 196.244L165.516 208.175L125.171 167.83C123.318 165.977 123.318 162.972 125.171 161.119L137.649 148.641L143.983 155.73L135.238 164.475ZM210.996 208.175L209.504 196.243L241.273 164.475L232.528 155.73L238.863 148.641L251.34 161.119C253.194 162.972 253.194 165.977 251.34 167.83L210.996 208.175ZM215.152 124.93L205.94 129.141L188.256 111.457L170.572 129.141L161.36 124.93L184.9 101.39C186.753 99.5367 189.758 99.5367 191.611 101.39L215.152 124.93ZM142.972 124.351C142.06 123.934 140.984 124.136 140.284 124.855L134.352 130.957C133.484 131.85 133.454 133.263 134.284 134.192L162.758 166.056C163.193 166.543 163.809 166.829 164.461 166.847C165.113 166.866 165.744 166.615 166.206 166.153L185.189 147.17C185.738 146.621 185.984 145.837 185.846 145.072C185.708 144.306 185.204 143.658 184.497 143.334L142.972 124.351ZM233.541 124.351C234.453 123.934 235.529 124.136 236.229 124.855L242.161 130.957C243.029 131.85 243.059 133.263 242.229 134.192L213.755 166.056C213.32 166.543 212.704 166.829 212.052 166.847C211.4 166.866 210.769 166.615 210.307 166.153L191.324 147.17C190.775 146.621 190.529 145.837 190.667 145.072C190.805 144.306 191.309 143.658 192.016 143.334L233.541 124.351ZM188.256 152.611C188.886 152.611 189.489 152.861 189.934 153.306L199.426 162.797C199.871 163.242 200.121 163.846 200.121 164.475C200.121 165.105 199.871 165.708 199.426 166.153L189.934 175.645C189.008 176.571 187.505 176.571 186.579 175.645L177.087 166.153C176.16 165.226 176.16 163.724 177.087 162.797L186.579 153.306C187.024 152.861 187.627 152.611 188.256 152.611ZM177.995 176.468C178.852 176.174 179.802 176.394 180.443 177.035L188.256 184.848L196.07 177.035C196.711 176.394 197.661 176.174 198.518 176.468C199.375 176.762 199.99 177.519 200.102 178.418L209.594 254.35C209.685 255.076 209.435 255.804 208.917 256.322L189.934 275.305C189.008 276.232 187.505 276.232 186.579 275.305L167.596 256.322C167.078 255.804 166.828 255.076 166.919 254.35L176.41 178.418C176.523 177.519 177.138 176.762 177.995 176.468Z" fill="#2F78E6"/>
<g opacity="0.25" filter="url(#filter0_f_758_2775)">
<circle cx="187.781" cy="18" r="8" fill="#2F78E5"/>
<circle cx="204.781" cy="35" r="8" fill="#2F78E5"/>
<circle cx="221.781" cy="52" r="8" fill="#2F78E5"/>
<circle cx="357.781" cy="188" r="8" fill="#2F78E5"/>
<circle cx="289.781" cy="120" r="8" fill="#2F78E5"/>
<circle cx="289.781" cy="256" r="8" fill="#2F78E5"/>
<circle cx="255.781" cy="86" r="8" fill="#2F78E5"/>
<circle cx="323.781" cy="222" r="8" fill="#2F78E5"/>
<circle cx="323.781" cy="154" r="8" fill="#2F78E5"/>
<circle cx="255.781" cy="290" r="8" fill="#2F78E5"/>
<circle cx="221.781" cy="324" r="8" fill="#2F78E5"/>
<circle cx="170.781" cy="35" r="8" fill="#2F78E5"/>
<circle cx="170.781" cy="341" r="8" fill="#2F78E5"/>
<circle cx="204.781" cy="341" r="8" fill="#2F78E5"/>
<circle cx="153.781" cy="52" r="8" fill="#2F78E5"/>
<circle cx="17.7812" cy="188" r="8" fill="#2F78E5"/>
<circle cx="85.7812" cy="120" r="8" fill="#2F78E5"/>
<circle cx="85.7812" cy="256" r="8" fill="#2F78E5"/>
<circle cx="119.781" cy="86" r="8" fill="#2F78E5"/>
<circle cx="51.7812" cy="222" r="8" fill="#2F78E5"/>
<circle cx="51.7812" cy="154" r="8" fill="#2F78E5"/>
<circle cx="119.781" cy="290" r="8" fill="#2F78E5"/>
<circle cx="153.781" cy="324" r="8" fill="#2F78E5"/>
<circle cx="238.781" cy="69" r="8" fill="#2F78E5"/>
<circle cx="340.781" cy="205" r="8" fill="#2F78E5"/>
<circle cx="306.781" cy="137" r="8" fill="#2F78E5"/>
<circle cx="272.781" cy="273" r="8" fill="#2F78E5"/>
<circle cx="272.781" cy="103" r="8" fill="#2F78E5"/>
<circle cx="306.781" cy="239" r="8" fill="#2F78E5"/>
<circle cx="340.781" cy="171" r="8" fill="#2F78E5"/>
<circle cx="238.781" cy="307" r="8" fill="#2F78E5"/>
<circle cx="136.781" cy="69" r="8" fill="#2F78E5"/>
<circle cx="34.7812" cy="205" r="8" fill="#2F78E5"/>
<circle cx="68.7812" cy="137" r="8" fill="#2F78E5"/>
<circle cx="102.781" cy="273" r="8" fill="#2F78E5"/>
<circle cx="102.781" cy="103" r="8" fill="#2F78E5"/>
<circle cx="68.7812" cy="239" r="8" fill="#2F78E5"/>
<circle cx="34.7812" cy="171" r="8" fill="#2F78E5"/>
<circle cx="136.781" cy="307" r="8" fill="#2F78E5"/>
<circle cx="187.781" cy="358" r="8" fill="#2F78E5"/>
</g>
<circle cx="187.781" cy="18" r="4" fill="#2F78E5"/>
<circle cx="204.781" cy="35" r="4" fill="#2F78E5"/>
<circle cx="221.781" cy="52" r="4" fill="#2F78E5"/>
<circle cx="357.781" cy="188" r="4" fill="#2F78E5"/>
<circle cx="289.781" cy="120" r="4" fill="#2F78E5"/>
<circle cx="289.781" cy="256" r="4" fill="#2F78E5"/>
<circle cx="255.781" cy="86" r="4" fill="#2F78E5"/>
<circle cx="323.781" cy="222" r="4" fill="#2F78E5"/>
<circle cx="323.781" cy="154" r="4" fill="#2F78E5"/>
<circle cx="255.781" cy="290" r="4" fill="#2F78E5"/>
<circle cx="221.781" cy="324" r="4" fill="#2F78E5"/>
<circle cx="170.781" cy="35" r="4" fill="#2F78E5"/>
<circle cx="170.781" cy="341" r="4" fill="#2F78E5"/>
<circle cx="204.781" cy="341" r="4" fill="#2F78E5"/>
<circle cx="153.781" cy="52" r="4" fill="#2F78E5"/>
<circle cx="17.7812" cy="188" r="4" fill="#2F78E5"/>
<circle cx="85.7812" cy="120" r="4" fill="#2F78E5"/>
<circle cx="85.7812" cy="256" r="4" fill="#2F78E5"/>
<circle cx="119.781" cy="86" r="4" fill="#2F78E5"/>
<circle cx="51.7812" cy="222" r="4" fill="#2F78E5"/>
<circle cx="51.7812" cy="154" r="4" fill="#2F78E5"/>
<circle cx="119.781" cy="290" r="4" fill="#2F78E5"/>
<circle cx="153.781" cy="324" r="4" fill="#2F78E5"/>
<circle cx="238.781" cy="69" r="4" fill="#2F78E5"/>
<circle cx="340.781" cy="205" r="4" fill="#2F78E5"/>
<circle cx="306.781" cy="137" r="4" fill="#2F78E5"/>
<circle cx="272.781" cy="273" r="4" fill="#2F78E5"/>
<circle cx="272.781" cy="103" r="4" fill="#2F78E5"/>
<circle cx="306.781" cy="239" r="4" fill="#2F78E5"/>
<circle cx="340.781" cy="171" r="4" fill="#2F78E5"/>
<circle cx="238.781" cy="307" r="4" fill="#2F78E5"/>
<circle cx="136.781" cy="69" r="4" fill="#2F78E5"/>
<circle cx="34.7812" cy="205" r="4" fill="#2F78E5"/>
<circle cx="68.7812" cy="137" r="4" fill="#2F78E5"/>
<circle cx="102.781" cy="273" r="4" fill="#2F78E5"/>
<circle cx="102.781" cy="103" r="4" fill="#2F78E5"/>
<circle cx="68.7812" cy="239" r="4" fill="#2F78E5"/>
<circle cx="34.7812" cy="171" r="4" fill="#2F78E5"/>
<circle cx="136.781" cy="307" r="4" fill="#2F78E5"/>
<circle cx="187.781" cy="358" r="4" fill="#2F78E5"/>
<defs>
<filter id="filter0_f_758_2775" x="5.78125" y="6" width="364" height="364" filterUnits="userSpaceOnUse" color-interpolation-filters="sRGB">
<feFlood flood-opacity="0" result="BackgroundImageFix"/>
<feBlend mode="normal" in="SourceGraphic" in2="BackgroundImageFix" result="shape"/>
<feGaussianBlur stdDeviation="2" result="effect1_foregroundBlur_758_2775"/>
</filter>
<linearGradient id="paint0_linear_758_2775" x1="187.779" y1="187.998" x2="269.78" y2="106" gradientUnits="userSpaceOnUse">
<stop stop-color="#0C1A3A"/>
<stop offset="0.549084" stop-color="#09132B" stop-opacity="0.736458"/>
<stop offset="1" stop-opacity="0"/>
</linearGradient>
<linearGradient id="paint1_linear_758_2775" x1="187.779" y1="188" x2="269.78" y2="269.999" gradientUnits="userSpaceOnUse">
<stop stop-color="#0C1A3A"/>
<stop offset="0.549084" stop-color="#09132B" stop-opacity="0.736458"/>
<stop offset="1" stop-opacity="0"/>
</linearGradient>
<linearGradient id="paint2_linear_758_2775" x1="187.781" y1="187.998" x2="105.781" y2="106" gradientUnits="userSpaceOnUse">
<stop stop-color="#0C1A3A"/>
<stop offset="0.549084" stop-color="#09132B" stop-opacity="0.736458"/>
<stop offset="1" stop-opacity="0"/>
</linearGradient>
<linearGradient id="paint3_linear_758_2775" x1="187.781" y1="188" x2="105.781" y2="269.999" gradientUnits="userSpaceOnUse">
<stop stop-color="#0C1A3A"/>
<stop offset="0.549084" stop-color="#09132B" stop-opacity="0.736458"/>
<stop offset="1" stop-opacity="0"/>
</linearGradient>
</defs>
</svg>
