<svg width="28" height="38" viewBox="0 0 28 38" fill="none" xmlns="http://www.w3.org/2000/svg">
<path fill-rule="evenodd" clip-rule="evenodd" d="M2.82828 14.0428L9.52255 20.7371L9.20828 23.2513L0.706955 14.7499C0.316431 14.3594 0.316432 13.7262 0.706956 13.3357L3.33619 10.7065L4.67095 12.2001L2.82828 14.0428ZM18.7915 23.2512L18.4772 20.737L25.1714 14.0428L23.3288 12.2002L24.6635 10.7065L27.2927 13.3357C27.6833 13.7262 27.6833 14.3594 27.2927 14.7499L18.7915 23.2512ZM19.6672 5.71018L17.7261 6.59753L13.9998 2.87125L10.2736 6.59752L8.3325 5.71017L13.2927 0.749924C13.6833 0.3594 14.3164 0.359401 14.707 0.749925L19.6672 5.71018ZM4.45787 5.58825C4.26561 5.50036 4.03886 5.54288 3.8915 5.69445L2.6415 6.98016C2.45849 7.16839 2.45223 7.46611 2.62716 7.66186L8.62716 14.3762C8.71877 14.4787 8.84854 14.5389 8.98596 14.5428C9.12339 14.5466 9.25634 14.4937 9.35355 14.3965L13.3535 10.3965C13.4694 10.2807 13.5211 10.1155 13.4921 9.9543C13.463 9.7931 13.3568 9.65635 13.2079 9.58825L4.45787 5.58825ZM23.5421 5.58825C23.7344 5.50036 23.9611 5.54288 24.1085 5.69445L25.3585 6.98016C25.5415 7.16839 25.5478 7.46611 25.3728 7.66186L19.3728 14.3762C19.2812 14.4787 19.1515 14.5389 19.014 14.5428C18.8766 14.5466 18.7437 14.4937 18.6465 14.3965L14.6465 10.3965C14.5306 10.2807 14.4789 10.1155 14.5079 9.9543C14.537 9.7931 14.6432 9.65635 14.7921 9.58825L23.5421 5.58825ZM14 11.543C14.1326 11.543 14.2598 11.5956 14.3536 11.6894L16.3536 13.6894C16.4473 13.7832 16.5 13.9104 16.5 14.043C16.5 14.1756 16.4473 14.3028 16.3536 14.3965L14.3536 16.3965C14.1583 16.5918 13.8417 16.5918 13.6464 16.3965L11.6464 14.3965C11.4512 14.2013 11.4512 13.8847 11.6464 13.6894L13.6464 11.6894C13.7402 11.5956 13.8674 11.543 14 11.543ZM11.8377 16.57C12.0184 16.5081 12.2185 16.5544 12.3536 16.6894L14 18.3359L15.6465 16.6894C15.7815 16.5544 15.9816 16.5081 16.1623 16.57C16.3429 16.632 16.4725 16.7915 16.4961 16.981L18.4961 32.981C18.5153 33.1341 18.4627 33.2874 18.3536 33.3965L14.3536 37.3965C14.1583 37.5918 13.8417 37.5918 13.6465 37.3965L9.64645 33.3965C9.53735 33.2874 9.48473 33.1341 9.50387 32.981L11.5039 16.981C11.5276 16.7915 11.6571 16.632 11.8377 16.57Z" fill="white"/>
</svg>
