<svg width="345" height="345" viewBox="0 0 345 345" fill="none" xmlns="http://www.w3.org/2000/svg">
<circle cx="172.558" cy="172.537" r="160" fill="url(#paint0_radial_109_4238)"/>
<circle cx="172.558" cy="172.537" r="160" fill="black" fill-opacity="0.2"/>
<circle cx="172.558" cy="172.537" r="160" stroke="#2F78E6" stroke-width="8" stroke-linecap="round" stroke-dasharray="0 24"/>
<g opacity="0.25" filter="url(#filter0_f_109_4238)">
<circle cx="172.558" cy="172.537" r="160" stroke="#2F78E6" stroke-width="16" stroke-linecap="round" stroke-dasharray="0 24"/>
</g>
<g opacity="0.25" filter="url(#filter1_f_109_4238)">
<path d="M91.7702 253.325L153.08 192.018L224.092 168.349V121.009H176.751L167.549 226.514H118.574V177.542L192.036 153.056L253.345 91.7493M253.345 91.7493V136.336M253.345 91.7493H208.756" stroke="#2F78E6" stroke-width="16" stroke-linecap="round" stroke-linejoin="round"/>
</g>
<path fill-rule="evenodd" clip-rule="evenodd" d="M203.544 91.7492C203.544 88.8707 205.878 86.5371 208.756 86.5371H253.345C256.224 86.5371 258.558 88.8707 258.558 91.7492V136.336C258.558 139.214 256.224 141.548 253.345 141.548C250.467 141.548 248.133 139.214 248.133 136.336V104.332L233.658 118.807L233.505 110.498L229.091 110.58L227.141 110.581L240.762 96.9614H208.756C205.878 96.9614 203.544 94.6278 203.544 91.7492ZM176.114 115.836L228.389 115.792L229.304 165.42V168.349C229.304 170.592 227.869 172.584 225.741 173.293L212.913 177.569L212.893 177.509L165.198 193.477L165.198 193.473L155.895 196.574L155.868 196.601L155.818 196.618L155.826 196.643L136.354 216.114L128.827 216.114L128.827 208.899L149.394 188.333C149.966 187.761 150.664 187.329 151.431 187.074L154.78 185.958L154.782 185.965L194.68 172.658L218.88 164.592V133.584L218.876 133.587L218.876 126.2L216.098 126.2L216.098 126.181L182.313 126.182L182.313 126.221H181.528L179.79 146.142L169.013 149.736L171.558 120.556C171.774 118.078 173.701 116.13 176.114 115.836ZM142.775 163.981L168.519 155.4L168.519 155.395L179.297 151.801L179.296 151.808L189.22 148.5L206.328 131.393L213.665 131.393L213.665 138.798L195.721 156.742C195.149 157.314 194.451 157.745 193.684 158.001L186.911 160.258L186.889 160.193L138.731 176.317L123.786 181.299V184.695L123.616 184.698L123.616 221.308L126.395 221.308L126.395 221.327L160.179 221.326L160.179 221.301H162.771L164.704 199.139L175.483 195.53L172.741 226.966C172.528 229.402 170.663 231.326 168.308 231.671L114.103 231.716L113.362 191.517V177.542C113.362 175.298 114.798 173.307 116.926 172.597L128.778 168.647L128.779 168.649L142.775 163.981ZM177.456 172.908L166.678 176.503L167.042 172.335L177.821 168.726L177.456 172.908ZM113.401 236.928L108.988 237.01L108.838 228.887L88.0843 249.639C86.0488 251.675 86.0487 254.975 88.0841 257.01C90.1195 259.046 93.4197 259.046 95.4552 257.011L115.54 236.927L113.401 236.928Z" fill="#2F78E6"/>
<defs>
<filter id="filter0_f_109_4238" x="0.557617" y="0.537109" width="344" height="344" filterUnits="userSpaceOnUse" color-interpolation-filters="sRGB">
<feFlood flood-opacity="0" result="BackgroundImageFix"/>
<feBlend mode="normal" in="SourceGraphic" in2="BackgroundImageFix" result="shape"/>
<feGaussianBlur stdDeviation="2" result="effect1_foregroundBlur_109_4238"/>
</filter>
<filter id="filter1_f_109_4238" x="79.77" y="79.7493" width="185.575" height="185.576" filterUnits="userSpaceOnUse" color-interpolation-filters="sRGB">
<feFlood flood-opacity="0" result="BackgroundImageFix"/>
<feBlend mode="normal" in="SourceGraphic" in2="BackgroundImageFix" result="shape"/>
<feGaussianBlur stdDeviation="2" result="effect1_foregroundBlur_109_4238"/>
</filter>
<radialGradient id="paint0_radial_109_4238" cx="0" cy="0" r="1" gradientUnits="userSpaceOnUse" gradientTransform="translate(172.558 172.537) rotate(90) scale(160)">
<stop stop-color="#0C1A3A"/>
<stop offset="0.56" stop-color="#0A152F" stop-opacity="0.815"/>
<stop offset="1" stop-opacity="0"/>
</radialGradient>
</defs>
</svg>
