<svg width="36" height="58" viewBox="0 0 36 58" fill="none" xmlns="http://www.w3.org/2000/svg">
<path fill-rule="evenodd" clip-rule="evenodd" d="M6.41421 17.5858L13.1085 24.2801L12.7942 26.7942L4.29289 18.2929C3.90237 17.9024 3.90237 17.2692 4.29289 16.8787L6.92212 14.2495L8.25689 15.7431L6.41421 17.5858ZM22.3774 26.7941L22.0632 24.28L28.7574 17.5858L26.9147 15.7431L28.2495 14.2495L30.8787 16.8787C31.2692 17.2692 31.2692 17.9024 30.8787 18.2929L22.3774 26.7941ZM23.2532 9.25315L21.3121 10.1405L17.5858 6.41421L13.8595 10.1405L11.9184 9.25313L16.8787 4.29289C17.2692 3.90237 17.9024 3.90237 18.2929 4.29289L23.2532 9.25315ZM8.04381 9.13122C7.85155 9.04333 7.62479 9.08584 7.47743 9.23741L6.22743 10.5231C6.04443 10.7114 6.03817 11.0091 6.2131 11.2048L12.2131 17.9191C12.3047 18.0216 12.4345 18.0819 12.5719 18.0858C12.7093 18.0896 12.8423 18.0367 12.9395 17.9395L16.9395 13.9395C17.0553 13.8237 17.1071 13.6585 17.078 13.4973C17.049 13.3361 16.9428 13.1993 16.7938 13.1312L8.04381 9.13122ZM27.1281 9.13122C27.3203 9.04333 27.5471 9.08584 27.6944 9.23741L28.9444 10.5231C29.1274 10.7114 29.1337 11.0091 28.9588 11.2048L22.9588 17.9191C22.8672 18.0216 22.7374 18.0819 22.6 18.0858C22.4626 18.0896 22.3296 18.0367 22.2324 17.9395L18.2324 13.9395C18.1166 13.8237 18.0648 13.6585 18.0939 13.4973C18.1229 13.3361 18.2291 13.1993 18.3781 13.1312L27.1281 9.13122ZM17.5859 15.0859C17.7185 15.0859 17.8457 15.1386 17.9395 15.2324L19.9395 17.2324C20.0333 17.3262 20.0859 17.4533 20.0859 17.5859C20.0859 17.7185 20.0333 17.8457 19.9395 17.9395L17.9395 19.9395C17.7442 20.1348 17.4276 20.1348 17.2324 19.9395L15.2324 17.9395C15.0371 17.7442 15.0371 17.4276 15.2324 17.2324L17.2324 15.2324C17.3262 15.1386 17.4533 15.0859 17.5859 15.0859ZM15.4237 20.113C15.6043 20.051 15.8045 20.0974 15.9395 20.2324L17.5859 21.8788L19.2324 20.2324C19.3674 20.0974 19.5676 20.051 19.7482 20.113C19.9288 20.175 20.0584 20.3344 20.0821 20.5239L22.0821 36.5239C22.1012 36.677 22.0486 36.8304 21.9395 36.9395L17.9395 40.9395C17.7442 41.1348 17.4277 41.1348 17.2324 40.9395L13.2324 36.9395C13.1233 36.8304 13.0707 36.677 13.0898 36.5239L15.0898 20.5239C15.1135 20.3344 15.243 20.175 15.4237 20.113Z" fill="#2F67E6"/>
<path d="M4 53.0859V45.1684H5.48415V46.1356H5.55129C5.61725 45.9807 5.71266 45.8232 5.83752 45.6633C5.96473 45.5008 6.12963 45.3659 6.33223 45.2584C6.53719 45.1484 6.79161 45.0934 7.09551 45.0934C7.49128 45.0934 7.85643 45.2034 8.19095 45.4233C8.52547 45.6408 8.79285 45.9694 8.9931 46.4093C9.19334 46.8466 9.29346 47.3952 9.29346 48.055C9.29346 48.6973 9.19569 49.2396 9.00016 49.682C8.80699 50.1219 8.54314 50.4555 8.20862 50.6829C7.87645 50.9079 7.50424 51.0203 7.09197 51.0203C6.79986 51.0203 6.55132 50.9691 6.34637 50.8666C6.14377 50.7642 5.97769 50.6355 5.84812 50.4805C5.71855 50.3231 5.61961 50.1644 5.55129 50.0044H5.50535V53.0859H4ZM5.47355 48.0475C5.47355 48.3899 5.51831 48.6886 5.60783 48.9435C5.69735 49.1984 5.82691 49.3971 5.99653 49.5395C6.16615 49.6795 6.37228 49.7495 6.61493 49.7495C6.85993 49.7495 7.06724 49.6783 7.23686 49.5358C7.40647 49.3908 7.53486 49.1909 7.62203 48.936C7.71155 48.6786 7.75631 48.3824 7.75631 48.0475C7.75631 47.7151 7.71272 47.4227 7.62556 47.1703C7.5384 46.9179 7.41001 46.7204 7.24039 46.578C7.07077 46.4355 6.86228 46.3643 6.61493 46.3643C6.36992 46.3643 6.16262 46.433 5.993 46.5705C5.82574 46.7079 5.69735 46.9029 5.60783 47.1553C5.51831 47.4077 5.47355 47.7051 5.47355 48.0475Z" fill="white"/>
<path d="M10.297 50.9266V45.1684H11.7564V46.1731H11.813C11.9119 45.8157 12.078 45.5458 12.3112 45.3634C12.5444 45.1784 12.813 45.0859 13.1169 45.0859C13.1923 45.0859 13.2736 45.0909 13.3607 45.1009C13.4479 45.1109 13.5245 45.1247 13.5904 45.1422V46.5592C13.5197 46.5367 13.422 46.5167 13.2971 46.4992C13.1723 46.4818 13.058 46.473 12.9544 46.473C12.7329 46.473 12.535 46.5242 12.3607 46.6267C12.1887 46.7267 12.0521 46.8666 11.9508 47.0466C11.8518 47.2265 11.8024 47.434 11.8024 47.6689V50.9266H10.297Z" fill="white"/>
<path d="M16.5896 51.0391C16.0313 51.0391 15.5507 50.9191 15.1479 50.6792C14.7474 50.4368 14.4388 50.0944 14.2221 49.652C14.0053 49.2071 13.897 48.6811 13.897 48.0738C13.897 47.4814 14.0053 46.9616 14.2221 46.5142C14.4388 46.0669 14.7439 45.7182 15.1373 45.4683C15.5331 45.2184 15.9972 45.0934 16.5296 45.0934C16.8876 45.0934 17.221 45.1547 17.5296 45.2771C17.8406 45.3971 18.1115 45.5783 18.3423 45.8207C18.5756 46.0631 18.757 46.368 18.8865 46.7354C19.0161 47.1003 19.0809 47.5277 19.0809 48.0175V48.4561H14.4977V47.4664H17.6639C17.6639 47.2365 17.6168 47.0328 17.5225 46.8554C17.4283 46.6779 17.2975 46.5392 17.1303 46.4393C16.9654 46.3368 16.7734 46.2856 16.5543 46.2856C16.3258 46.2856 16.1232 46.3418 15.9465 46.4543C15.7722 46.5642 15.6355 46.7129 15.5366 46.9004C15.4377 47.0853 15.387 47.2915 15.3846 47.5189V48.4599C15.3846 48.7448 15.4341 48.991 15.5331 49.1984C15.6344 49.4058 15.7769 49.5658 15.9606 49.6783C16.1444 49.7907 16.3623 49.847 16.6144 49.847C16.7816 49.847 16.9348 49.822 17.0737 49.772C17.2127 49.722 17.3317 49.647 17.4307 49.547C17.5296 49.4471 17.605 49.3246 17.6568 49.1797L19.0491 49.2771C18.9784 49.632 18.8335 49.9419 18.6144 50.2068C18.3977 50.4693 18.1174 50.6742 17.7734 50.8216C17.4318 50.9666 17.0372 51.0391 16.5896 51.0391Z" fill="white"/>
<path d="M20.0632 53.0859V45.1684H21.5474V46.1356H21.6145C21.6805 45.9807 21.7759 45.8232 21.9008 45.6633C22.028 45.5008 22.1929 45.3659 22.3955 45.2584C22.6004 45.1484 22.8549 45.0934 23.1588 45.0934C23.5545 45.0934 23.9197 45.2034 24.2542 45.4233C24.5887 45.6408 24.8561 45.9694 25.0563 46.4093C25.2566 46.8466 25.3567 47.3952 25.3567 48.055C25.3567 48.6973 25.2589 49.2396 25.0634 49.682C24.8702 50.1219 24.6064 50.4555 24.2719 50.6829C23.9397 50.9079 23.5675 51.0203 23.1552 51.0203C22.8631 51.0203 22.6146 50.9691 22.4096 50.8666C22.207 50.7642 22.0409 50.6355 21.9114 50.4805C21.7818 50.3231 21.6829 50.1644 21.6145 50.0044H21.5686V53.0859H20.0632ZM21.5368 48.0475C21.5368 48.3899 21.5816 48.6886 21.6711 48.9435C21.7606 49.1984 21.8902 49.3971 22.0598 49.5395C22.2294 49.6795 22.4355 49.7495 22.6782 49.7495C22.9232 49.7495 23.1305 49.6783 23.3001 49.5358C23.4697 49.3908 23.5981 49.1909 23.6853 48.936C23.7748 48.6786 23.8196 48.3824 23.8196 48.0475C23.8196 47.7151 23.776 47.4227 23.6888 47.1703C23.6016 46.9179 23.4733 46.7204 23.3036 46.578C23.134 46.4355 22.9255 46.3643 22.6782 46.3643C22.4332 46.3643 22.2259 46.433 22.0562 46.5705C21.889 46.7079 21.7606 46.9029 21.6711 47.1553C21.5816 47.4077 21.5368 47.7051 21.5368 48.0475Z" fill="white"/>
<path d="M30.8763 46.8104L29.4982 46.9004C29.4746 46.7754 29.424 46.6629 29.3462 46.563C29.2685 46.4605 29.166 46.3793 29.0388 46.3193C28.914 46.2568 28.7644 46.2256 28.59 46.2256C28.3568 46.2256 28.1601 46.2781 27.9999 46.383C27.8397 46.4855 27.7596 46.623 27.7596 46.7954C27.7596 46.9329 27.8114 47.0491 27.9151 47.144C28.0187 47.239 28.1966 47.3152 28.4487 47.3727L29.431 47.5827C29.9587 47.6976 30.3522 47.8826 30.6113 48.1375C30.8704 48.3924 31 48.7273 31 49.1422C31 49.5196 30.8952 49.8507 30.6855 50.1356C30.4782 50.4205 30.1931 50.643 29.8304 50.8029C29.4699 50.9604 29.0541 51.0391 28.583 51.0391C27.8644 51.0391 27.292 50.8804 26.8656 50.563C26.4415 50.2431 26.193 49.8082 26.12 49.2584L27.6006 49.1759C27.6454 49.4083 27.7537 49.5858 27.9257 49.7082C28.0977 49.8282 28.3179 49.8882 28.5865 49.8882C28.8503 49.8882 29.0624 49.8345 29.2226 49.727C29.3851 49.617 29.4676 49.4758 29.4699 49.3034C29.4676 49.1584 29.4098 49.0397 29.2968 48.9472C29.1837 48.8523 29.0094 48.7798 28.7738 48.7298L27.8338 48.5311C27.3038 48.4186 26.9092 48.2237 26.65 47.9463C26.3933 47.6689 26.2649 47.3152 26.2649 46.8854C26.2649 46.5155 26.3591 46.1968 26.5476 45.9294C26.7384 45.662 27.0058 45.4558 27.3497 45.3109C27.696 45.1659 28.1012 45.0934 28.5653 45.0934C29.2508 45.0934 29.7903 45.2471 30.1837 45.5545C30.5795 45.8619 30.8104 46.2806 30.8763 46.8104Z" fill="white"/>
</svg>
